PathFileType	4	(X/Y/Z)	T1_P2_NoVision_Movement_1_0-729.trc
DataRate	CameraRate	NumFrames	NumMarkers	Units	OrigDataRate	OrigDataStartFrame	OrigNumFrames
60	60	5	27	m	60	91	729
Frame#	Time	RHip			RKnee			RAnkle			RBigToe			RSmallToe			RHeel			LHip			LKnee			LAnkle			LBigToe			LSmallToe			LHeel			Neck			Head			Nose			RShoulder			RElbow			RWrist			RThumb			RIndex			RPinky			LShoulder			LElbow			LWrist			LThumb			LIndex			LPinky		
		X1	Y1	Z1	X2	Y2	Z2	X3	Y3	Z3	X4	Y4	Z4	X5	Y5	Z5	X6	Y6	Z6	X7	Y7	Z7	X8	Y8	Z8	X9	Y9	Z9	X10	Y10	Z10	X11	Y11	Z11	X12	Y12	Z12	X13	Y13	Z13	X14	Y14	Z14	X15	Y15	Z15	X16	Y16	Z16	X17	Y17	Z17	X18	Y18	Z18	X19	Y19	Z19	X20	Y20	Z20	X21	Y21	Z21	X22	Y22	Z22	X23	Y23	Z23	X24	Y24	Z24	X25	Y25	Z25	X26	Y26	Z26	X27	Y27	Z27
92	1.5333333333333334	449.28024640965793	3627.1912875935855	544.67668734456	869.0930758377389	3718.17981867318	578.7856919926552	1236.312230994091	3720.035399521397	619.2760936657542	1328.594991971743	3628.4109018034137	611.5849194419606	1305.5613501121702	3653.5315069003836	551.5234436995163	1263.3208254710928	3700.967393650428	636.3800279449816	458.91671725913756	3509.7284265385024	736.1321768088263	877.1933453067221	3549.2168693472413	749.946047709195	1217.0300819568383	3588.383852088309	735.4204408264133	1317.4652329681924	3535.8098718768497	683.5871061386187	1272.6015190773753	3455.605472023764	715.2419514834395	1266.47267520366	3611.37526514754	727.9035284280138	-106.0977443168085	3550.5661705933403	653.7200442898098	-356.64898518616496	3460.810616398729	600.200651559931	-195.12054793280112	3443.595006070616	569.403573267563	-44.33475109755579	3665.354230508515	551.046491083424	199.62474759144257	3768.530513675414	503.6973053803342	428.5870785468404	3714.5429217432084	429.6604846858049	542.8838089317395	3672.5134913658576	432.53684774557166	563.7610460708208	3693.2377500203256	420.0525117359151	557.2917911601572	3695.2483488638914	409.2007028826364	-18.23700855513543	3529.7526700057215	832.0354083279245	233.15882051736247	3449.0580390114196	848.6067327794885	485.31172094365303	3422.0848705816593	841.2108532820946	590.2180236658018	3432.398888467897	812.6184773966122	604.2108502931305	3418.430348868281	823.0635149919386	607.6838727123835	3426.823183591819	873.1181401013422
93	1.55	449.19174373176105	3627.1583355423836	544.6782257144791	869.7558539262186	3705.9300096047064	566.990337018483	1242.5003514431114	3724.2519478840018	620.1336499172568	1328.7631729624961	3628.291721777819	611.6996252046878	1312.4624310711843	3657.9152081497514	552.7097721353681	1269.9015597015677	3707.7918277539547	633.1259002301839	458.8623243633504	3509.753078679236	736.1872024815822	877.5911288425887	3549.74904370817	750.1138722602201	1217.2761479744267	3588.98319652494	735.8099268141492	1332.8134270601283	3571.6449597651317	702.948701037566	1279.989994601267	3475.259074601542	721.3606992050694	1264.5268541770758	3618.9725016144125	730.1090058067995	-97.39274239502294	3556.4390264674425	656.4625733621597	-356.4268503727195	3460.14658366266	599.7383246857955	-190.26116805941874	3447.587391221483	571.0704785221886	-44.4070840594102	3665.2288991790156	551.0871655969819	199.54908563823824	3768.519163289039	503.6535003229049	426.1208256449101	3694.5362257277948	425.53353093447924	550.0332382675628	3687.1476897092425	434.4609208156623	563.8699955211691	3693.7272475160744	420.22771100264623	557.3529035506053	3695.4832929728914	409.28054847034184	-14.182829193992408	3526.010470015078	829.9390591621858	233.2438233721052	3449.0371248945326	848.5758993158516	485.3785830540688	3422.0603524063645	841.1865337655972	590.4650520372551	3430.741981093541	816.7149082704537	604.3619799030221	3417.9590725704747	822.882199972054	611.7830901877686	3428.3191051454073	874.4536280163853
94	1.5666666666666667	449.1451000498157	3627.1506241025804	544.6367886976753	858.4736229690104	3699.110070271169	564.0460559290354	1236.3335195616446	3722.279680341384	618.5790966485639	1328.4060673658335	3628.049367134513	611.5625089427568	1305.5523717200138	3653.4762374680668	551.6277782444213	1263.7134534691384	3704.282379971884	632.5818388638413	458.858012806131	3509.671888822527	736.1434084801899	871.526497685754	3545.432811947517	748.6954262489146	1217.3086317566074	3589.1959904138644	735.8932840197274	1325.0762595379888	3551.479634568172	697.0779880064606	1279.873964087197	3475.1493099391846	721.2849231597438	1258.4610150701742	3615.301141481208	729.4258724804339	-101.299244962656	3554.9754257953705	655.7790162238867	-356.53667345943103	3460.338481541615	600.0576703007016	-190.70038318453695	3447.744581146599	571.4323289987769	-44.36320823515579	3665.531824307631	551.1575066244693	199.63221413049357	3768.5178236415063	503.7369540894159	429.8704396940394	3689.868464659673	423.4084574230978	550.0256029482688	3686.759535476722	434.2738179264134	567.5299453412331	3688.325563353056	417.9129971703464	557.3033218760456	3695.0012741497444	409.2707863264395	-14.128506783823186	3523.2605705799924	833.4177990282267	233.3220700163257	3448.8983398788278	848.5143665627867	485.4305453464662	3421.8465492362902	841.0376819026889	590.3527466105377	3432.2108944764236	812.6300529326592	604.2643036529107	3418.2436616784103	823.0382814943224	607.7109961733142	3426.7507099193235	873.1328633705906
95	1.5833333333333333	449.0977231591913	3627.1739768280036	544.6811881193833	858.5022506255895	3699.378729349742	564.1462271469585	1229.137276408836	3701.321561572935	613.0574288644805	1321.4848684359256	3623.567892220189	610.6954317137627	1297.62584218895	3632.214146988534	545.9138221124178	1269.9013014442362	3708.2444533042076	633.3380009620535	454.975875809761	3513.9491155749442	738.6067423137923	871.5862900923998	3545.6123614560925	748.8242693006471	1214.8465860773254	3594.4259757617683	738.9763552099065	1325.619288727334	3559.687727485682	685.5217165912264	1279.8148567083886	3475.2126398165724	721.1922747401809	1256.0208750715296	3620.559937301803	732.1443871665734	-97.43699715596178	3556.552514581002	656.5105981544716	-356.4972514169161	3460.323175137923	600.1199897665786	-190.734637967182	3447.851643801254	571.4942437142319	-44.36392863461069	3665.3023486579723	551.0677386376449	199.67238510800087	3768.5253122258355	503.7632235583776	426.21753244546875	3694.5886674585026	425.6127817949856	550.0956063816869	3687.3286789368644	434.46336169848615	563.9777038703338	3693.661113192603	420.1797980127928	557.3163564467916	3694.752862907017	409.2210135673508	-14.08690192022016	3525.9410269057566	829.9400247444045	237.696122666945	3450.369221526499	849.4322858357792	485.3699684640729	3422.0122328976763	841.0400012892019	590.3163375856151	3432.157142872045	812.4967343402518	604.3272044520513	3418.237527625843	822.9983191904057	607.7892895827428	3426.9729341065367	873.2849969292226
96	1.6	449.0930571902836	3626.888262731713	544.5644539931769	859.6036619840946	3707.4036971997134	568.6589765594792	1242.4822363511305	3724.557577458485	620.270774092407	1318.9850677303489	3630.8031071249416	608.5360193469681	1318.7036998653903	3672.0442788718874	566.2691402718197	1267.547854663972	3713.6542055536715	636.0642222350954	454.93380974067924	3513.6652894458825	738.4485225201253	877.8056730758711	3550.0507380119516	750.3397172524778	1224.4408543301342	3604.719748949465	749.678022595511	1325.703831505175	3559.9919582725042	685.610534570025	1279.96092855211	3475.4343303389874	721.4077472053832	1258.6045579933411	3615.5514890339227	729.4655211067163	-102.14569951994872	3532.209103692617	648.5127223264716	-356.50081362579584	3458.698982393023	604.810729461329	-190.55936498379597	3428.5415568844683	565.9530327588317	-44.41127015073546	3665.2386566602036	551.0743760278455	199.64155491569846	3768.680101581549	503.833051337291	429.95930198136176	3689.9206344379168	423.4757702167378	554.7097212738751	3691.1944645412473	435.3508948800543	567.8152967538298	3688.8003767271907	418.0678321668735	557.54350254246	3694.8687867412605	409.3591080029841	-14.11070287295539	3522.937434041028	833.4303141673513	237.75386889499293	3450.288505610554	849.436945284267	485.38772869090235	3422.087015859564	841.1302890048776	590.2630397359397	3432.2019355658285	812.5091064343541	604.2427323064389	3418.4431678395213	823.0585613238769	611.7745672241637	3428.5230950165346	874.5168387258201
